<svg width="190" height="47" viewBox="0 0 190 47" fill="none" xmlns="http://www.w3.org/2000/svg">
<path d="M24.6875 33.3086C23.6589 34.6497 22.2331 35.6654 20.4102 36.3555C18.5872 37.0456 16.5169 37.3906 14.1992 37.3906C11.8164 37.3906 9.70703 36.8503 7.87109 35.7695C6.03516 34.6888 4.61589 33.1458 3.61328 31.1406C2.6237 29.1224 2.10938 26.7721 2.07031 24.0898V21.8633C2.07031 17.5664 3.09896 14.2135 5.15625 11.8047C7.21354 9.38281 10.0846 8.17188 13.7695 8.17188C16.9336 8.17188 19.4466 8.95312 21.3086 10.5156C23.1706 12.0781 24.2904 14.3307 24.668 17.2734H19.8242C19.2773 13.849 17.2917 12.1367 13.8672 12.1367C11.6536 12.1367 9.96745 12.9375 8.80859 14.5391C7.66276 16.1276 7.07031 18.4648 7.03125 21.5508V23.7383C7.03125 26.8112 7.67578 29.2005 8.96484 30.9062C10.2669 32.599 12.0703 33.4453 14.375 33.4453C16.901 33.4453 18.6979 32.8724 19.7656 31.7266V26.1602H13.9062V22.4102H24.6875V33.3086ZM46.7383 24.3047H35.0586V33.0547H48.7109V37H30.1172V8.5625H48.5742V12.5469H35.0586V20.3984H46.7383V24.3047ZM73.6719 12.5469H64.8047V37H59.9023V12.5469H51.1133V8.5625H73.6719V12.5469ZM86.2109 37V8.5625H94.6094C97.1224 8.5625 99.349 9.1224 101.289 10.2422C103.242 11.362 104.753 12.9505 105.82 15.0078C106.888 17.0651 107.422 19.4219 107.422 22.0781V23.5039C107.422 26.1992 106.882 28.569 105.801 30.6133C104.733 32.6576 103.203 34.2331 101.211 35.3398C99.2318 36.4466 96.9596 37 94.3945 37H86.2109ZM91.1523 12.5469V33.0547H94.375C96.9661 33.0547 98.9518 32.2474 100.332 30.6328C101.725 29.0052 102.435 26.6745 102.461 23.6406V22.0586C102.461 18.9727 101.79 16.6159 100.449 14.9883C99.1081 13.3607 97.1615 12.5469 94.6094 12.5469H91.1523ZM163.926 27.7422C163.639 30.776 162.52 33.1458 160.566 34.8516C158.613 36.5443 156.016 37.3906 152.773 37.3906C150.508 37.3906 148.509 36.8568 146.777 35.7891C145.059 34.7083 143.73 33.1784 142.793 31.1992C141.855 29.2201 141.367 26.9219 141.328 24.3047V21.6484C141.328 18.9661 141.803 16.6029 142.754 14.5586C143.704 12.5143 145.065 10.9388 146.836 9.83203C148.62 8.72526 150.677 8.17188 153.008 8.17188C156.146 8.17188 158.672 9.02474 160.586 10.7305C162.5 12.4362 163.613 14.8451 163.926 17.957H159.004C158.77 15.9128 158.171 14.4414 157.207 13.543C156.257 12.6315 154.857 12.1758 153.008 12.1758C150.859 12.1758 149.206 12.9635 148.047 14.5391C146.901 16.1016 146.315 18.3997 146.289 21.4336V23.9531C146.289 27.026 146.836 29.3698 147.93 30.9844C149.036 32.599 150.651 33.4062 152.773 33.4062C154.714 33.4062 156.172 32.9701 157.148 32.0977C158.125 31.2253 158.743 29.7734 159.004 27.7422H163.926ZM183.223 29.6758C183.223 28.4258 182.78 27.4622 181.895 26.7852C181.022 26.1081 179.44 25.4245 177.148 24.7344C174.857 24.0443 173.034 23.276 171.68 22.4297C169.089 20.8021 167.793 18.6797 167.793 16.0625C167.793 13.7708 168.724 11.8828 170.586 10.3984C172.461 8.91406 174.889 8.17188 177.871 8.17188C179.85 8.17188 181.615 8.53646 183.164 9.26562C184.714 9.99479 185.931 11.0365 186.816 12.3906C187.702 13.7318 188.145 15.2227 188.145 16.8633H183.223C183.223 15.3789 182.754 14.2201 181.816 13.3867C180.892 12.5404 179.564 12.1172 177.832 12.1172C176.217 12.1172 174.961 12.4622 174.062 13.1523C173.177 13.8424 172.734 14.806 172.734 16.043C172.734 17.0846 173.216 17.957 174.18 18.6602C175.143 19.3503 176.732 20.0273 178.945 20.6914C181.159 21.3424 182.936 22.0911 184.277 22.9375C185.618 23.7708 186.602 24.7344 187.227 25.8281C187.852 26.9089 188.164 28.1784 188.164 29.6367C188.164 32.0065 187.253 33.8945 185.43 35.3008C183.62 36.694 181.159 37.3906 178.047 37.3906C175.99 37.3906 174.095 37.013 172.363 36.2578C170.645 35.4896 169.303 34.4349 168.34 33.0938C167.389 31.7526 166.914 30.1901 166.914 28.4062H171.855C171.855 30.0208 172.389 31.2708 173.457 32.1562C174.525 33.0417 176.055 33.4844 178.047 33.4844C179.766 33.4844 181.055 33.1393 181.914 32.4492C182.786 31.7461 183.223 30.8216 183.223 29.6758Z" fill="white"/>
<mask id="path-2-inside-1" fill="white">
<rect x="113" y="8" width="24" height="29" rx="2"/>
</mask>
<rect x="113" y="8" width="24" height="29" rx="2" stroke="white" stroke-width="6" mask="url(#path-2-inside-1)"/>
<line x1="118" y1="17" x2="132" y2="18" stroke="white" stroke-width="2"/>
<line x1="118" y1="22" x2="132" y2="23" stroke="white" stroke-width="2"/>
<line x1="118" y1="27" x2="132" y2="28" stroke="white" stroke-width="2"/>
</svg>
